<svg width="274" height="768" viewBox="0 0 274 768" fill="none" xmlns="http://www.w3.org/2000/svg">
<g clip-path="url(#clip0_0_207)">
<rect width="328" height="768" fill="#415167"/>
<path d="M63.144 299.128C62.0987 299.128 61.1867 298.899 60.408 298.44C59.64 297.971 59.048 297.304 58.632 296.44C58.2267 295.565 58.024 294.536 58.024 293.352C58.024 292.168 58.2267 291.144 58.632 290.28C59.048 289.416 59.64 288.755 60.408 288.296C61.1867 287.827 62.0987 287.592 63.144 287.592C63.8587 287.592 64.536 287.715 65.176 287.96C65.8267 288.195 66.376 288.536 66.824 288.984C66.9733 289.123 67.048 289.277 67.048 289.448C67.048 289.565 67.0107 289.667 66.936 289.752C66.872 289.837 66.7973 289.88 66.712 289.88C66.6053 289.88 66.4827 289.827 66.344 289.72C65.768 289.251 65.2453 288.925 64.776 288.744C64.3067 288.563 63.7573 288.472 63.128 288.472C61.8373 288.472 60.8347 288.899 60.12 289.752C59.416 290.605 59.064 291.805 59.064 293.352C59.064 294.909 59.416 296.115 60.12 296.968C60.8347 297.821 61.8373 298.248 63.128 298.248C63.7573 298.248 64.3067 298.157 64.776 297.976C65.2453 297.795 65.768 297.469 66.344 297C66.504 296.893 66.6267 296.84 66.712 296.84C66.7973 296.84 66.872 296.883 66.936 296.968C67.0107 297.053 67.048 297.155 67.048 297.272C67.048 297.443 66.9733 297.597 66.824 297.736C66.376 298.184 65.8267 298.531 65.176 298.776C64.536 299.011 63.8587 299.128 63.144 299.128ZM73.7199 299.128C72.6959 299.128 71.8052 298.899 71.0479 298.44C70.2905 297.971 69.7092 297.304 69.3039 296.44C68.8985 295.565 68.6959 294.541 68.6959 293.368C68.6959 292.184 68.8985 291.16 69.3039 290.296C69.7092 289.421 70.2852 288.755 71.0319 288.296C71.7892 287.827 72.6852 287.592 73.7199 287.592C74.7545 287.592 75.6505 287.827 76.4079 288.296C77.1652 288.755 77.7465 289.416 78.1519 290.28C78.5572 291.144 78.7599 292.168 78.7599 293.352C78.7599 294.536 78.5572 295.565 78.1519 296.44C77.7465 297.304 77.1652 297.971 76.4079 298.44C75.6505 298.899 74.7545 299.128 73.7199 299.128ZM73.7199 298.248C74.9892 298.248 75.9759 297.821 76.6799 296.968C77.3839 296.115 77.7359 294.909 77.7359 293.352C77.7359 291.795 77.3839 290.595 76.6799 289.752C75.9865 288.899 74.9999 288.472 73.7199 288.472C72.4505 288.472 71.4639 288.899 70.7599 289.752C70.0665 290.605 69.7199 291.805 69.7199 293.352C69.7199 294.899 70.0665 296.104 70.7599 296.968C71.4639 297.821 72.4505 298.248 73.7199 298.248ZM81.7333 299.08C81.5839 299.08 81.4613 299.032 81.3653 298.936C81.2799 298.84 81.2373 298.717 81.2373 298.568V288.216C81.2373 288.077 81.2853 287.96 81.3813 287.864C81.4879 287.768 81.6159 287.72 81.7653 287.72H87.6853C87.8239 287.72 87.9306 287.757 88.0052 287.832C88.0906 287.907 88.1333 288.013 88.1333 288.152C88.1333 288.291 88.0906 288.397 88.0052 288.472C87.9306 288.536 87.8239 288.568 87.6853 288.568H82.2293V292.84H87.3653C87.5039 292.84 87.6106 292.877 87.6853 292.952C87.7706 293.027 87.8133 293.133 87.8133 293.272C87.8133 293.411 87.7706 293.517 87.6853 293.592C87.6106 293.667 87.5039 293.704 87.3653 293.704H82.2293V298.568C82.2293 298.728 82.1866 298.856 82.1013 298.952C82.0159 299.037 81.8933 299.08 81.7333 299.08ZM90.577 299.08C90.4277 299.08 90.305 299.032 90.209 298.936C90.1237 298.84 90.081 298.717 90.081 298.568V288.216C90.081 288.077 90.129 287.96 90.225 287.864C90.3317 287.768 90.4597 287.72 90.609 287.72H96.529C96.6677 287.72 96.7743 287.757 96.849 287.832C96.9343 287.907 96.977 288.013 96.977 288.152C96.977 288.291 96.9343 288.397 96.849 288.472C96.7743 288.536 96.6677 288.568 96.529 288.568H91.073V292.84H96.209C96.3477 292.84 96.4543 292.877 96.529 292.952C96.6143 293.027 96.657 293.133 96.657 293.272C96.657 293.411 96.6143 293.517 96.529 293.592C96.4543 293.667 96.3477 293.704 96.209 293.704H91.073V298.568C91.073 298.728 91.0303 298.856 90.945 298.952C90.8597 299.037 90.737 299.08 90.577 299.08ZM99.4528 299C99.3034 299 99.1754 298.952 99.0688 298.856C98.9728 298.76 98.9248 298.643 98.9248 298.504V288.216C98.9248 288.077 98.9728 287.96 99.0688 287.864C99.1754 287.768 99.3034 287.72 99.4528 287.72H105.533C105.671 287.72 105.778 287.757 105.853 287.832C105.938 287.907 105.981 288.013 105.981 288.152C105.981 288.28 105.938 288.381 105.853 288.456C105.778 288.531 105.671 288.568 105.533 288.568H99.9008V292.84H105.213C105.351 292.84 105.458 292.877 105.533 292.952C105.618 293.027 105.661 293.133 105.661 293.272C105.661 293.411 105.618 293.517 105.533 293.592C105.458 293.667 105.351 293.704 105.213 293.704H99.9008V298.152H105.533C105.671 298.152 105.778 298.189 105.853 298.264C105.938 298.328 105.981 298.429 105.981 298.568C105.981 298.707 105.938 298.813 105.853 298.888C105.778 298.963 105.671 299 105.533 299H99.4528ZM108.718 299C108.569 299 108.441 298.952 108.334 298.856C108.238 298.76 108.19 298.643 108.19 298.504V288.216C108.19 288.077 108.238 287.96 108.334 287.864C108.441 287.768 108.569 287.72 108.718 287.72H114.798C114.937 287.72 115.044 287.757 115.118 287.832C115.204 287.907 115.246 288.013 115.246 288.152C115.246 288.28 115.204 288.381 115.118 288.456C115.044 288.531 114.937 288.568 114.798 288.568H109.166V292.84H114.478C114.617 292.84 114.724 292.877 114.798 292.952C114.884 293.027 114.926 293.133 114.926 293.272C114.926 293.411 114.884 293.517 114.798 293.592C114.724 293.667 114.617 293.704 114.478 293.704H109.166V298.152H114.798C114.937 298.152 115.044 298.189 115.118 298.264C115.204 298.328 115.246 298.429 115.246 298.568C115.246 298.707 115.204 298.813 115.118 298.888C115.044 298.963 114.937 299 114.798 299H108.718ZM58.952 347.08C58.8027 347.08 58.68 347.037 58.584 346.952C58.4987 346.856 58.456 346.728 58.456 346.568V336.216C58.456 336.077 58.504 335.96 58.6 335.864C58.7067 335.768 58.8347 335.72 58.984 335.72H62.728C63.9013 335.72 64.808 336.003 65.448 336.568C66.0987 337.133 66.424 337.933 66.424 338.968C66.424 340.013 66.0987 340.824 65.448 341.4C64.7973 341.965 63.8907 342.248 62.728 342.248H59.448V346.568C59.448 346.728 59.4 346.856 59.304 346.952C59.2187 347.037 59.1013 347.08 58.952 347.08ZM62.664 341.4C64.5093 341.4 65.432 340.589 65.432 338.968C65.432 337.368 64.5093 336.568 62.664 336.568H59.448V341.4H62.664ZM77.3151 335.64C77.4751 335.64 77.5978 335.688 77.6831 335.784C77.7685 335.869 77.8111 335.992 77.8111 336.152V346.568C77.8111 346.728 77.7685 346.856 77.6831 346.952C77.5978 347.037 77.4751 347.08 77.3151 347.08C77.1658 347.08 77.0485 347.032 76.9631 346.936C76.8778 346.84 76.8351 346.717 76.8351 346.568V341.704H69.6351V346.568C69.6351 346.717 69.5925 346.84 69.5071 346.936C69.4218 347.032 69.3045 347.08 69.1551 347.08C69.0058 347.08 68.8831 347.032 68.7871 346.936C68.7018 346.84 68.6591 346.717 68.6591 346.568V336.152C68.6591 336.003 68.7018 335.88 68.7871 335.784C68.8831 335.688 69.0058 335.64 69.1551 335.64C69.3045 335.64 69.4218 335.688 69.5071 335.784C69.5925 335.88 69.6351 336.003 69.6351 336.152V340.84H76.8351V336.152C76.8351 336.003 76.8778 335.88 76.9631 335.784C77.0485 335.688 77.1658 335.64 77.3151 335.64ZM81.2176 347.08C81.0683 347.08 80.9456 347.032 80.8496 346.936C80.7643 346.84 80.7216 346.717 80.7216 346.568V336.152C80.7216 336.003 80.7643 335.88 80.8496 335.784C80.9456 335.688 81.0683 335.64 81.2176 335.64C81.367 335.64 81.4843 335.688 81.5696 335.784C81.6656 335.88 81.7136 336.003 81.7136 336.152V346.568C81.7136 346.717 81.6656 346.84 81.5696 346.936C81.4843 347.032 81.367 347.08 81.2176 347.08ZM93.0119 335.64C93.1612 335.64 93.2732 335.688 93.3479 335.784C93.4332 335.869 93.4759 335.992 93.4759 336.152V346.568C93.4759 346.717 93.4332 346.84 93.3479 346.936C93.2625 347.032 93.1452 347.08 92.9959 347.08C92.8359 347.08 92.6919 347 92.5639 346.84L85.5559 337.384V346.568C85.5559 346.717 85.5132 346.84 85.4279 346.936C85.3425 347.032 85.2305 347.08 85.0919 347.08C84.9319 347.08 84.8145 347.037 84.7399 346.952C84.6652 346.856 84.6279 346.728 84.6279 346.568V336.152C84.6279 336.003 84.6705 335.88 84.7559 335.784C84.8519 335.688 84.9799 335.64 85.1399 335.64C85.3105 335.64 85.4492 335.72 85.5559 335.88L92.5479 345.32V336.152C92.5479 336.003 92.5905 335.88 92.6759 335.784C92.7612 335.688 92.8732 335.64 93.0119 335.64ZM110.441 335.64C110.601 335.64 110.723 335.688 110.809 335.784C110.905 335.88 110.953 336.003 110.953 336.152V346.568C110.953 346.717 110.91 346.84 110.825 346.936C110.739 347.032 110.622 347.08 110.473 347.08C110.323 347.08 110.211 347.037 110.137 346.952C110.062 346.856 110.025 346.728 110.025 346.568V337.688L106.233 345.016C106.105 345.261 105.929 345.384 105.705 345.384C105.481 345.384 105.305 345.261 105.177 345.016L101.353 337.752V346.568C101.353 346.728 101.315 346.856 101.241 346.952C101.166 347.037 101.054 347.08 100.905 347.08C100.745 347.08 100.622 347.037 100.537 346.952C100.462 346.856 100.425 346.728 100.425 346.568V336.152C100.425 336.003 100.467 335.88 100.553 335.784C100.649 335.688 100.777 335.64 100.937 335.64C101.129 335.64 101.289 335.763 101.417 336.008L105.721 344.264L109.961 336.008C110.089 335.763 110.249 335.64 110.441 335.64ZM123.366 346.472C123.398 346.536 123.414 346.6 123.414 346.664C123.414 346.781 123.366 346.883 123.27 346.968C123.174 347.043 123.062 347.08 122.934 347.08C122.849 347.08 122.764 347.053 122.678 347C122.604 346.947 122.545 346.872 122.502 346.776L121.286 343.992H115.078L113.846 346.776C113.75 346.979 113.601 347.08 113.398 347.08C113.27 347.08 113.158 347.043 113.062 346.968C112.977 346.883 112.934 346.776 112.934 346.648C112.934 346.573 112.945 346.515 112.966 346.472L117.638 335.976C117.734 335.741 117.91 335.624 118.166 335.624C118.284 335.624 118.39 335.656 118.486 335.72C118.593 335.784 118.668 335.869 118.71 335.976L123.366 346.472ZM120.902 343.128L118.182 336.936L115.446 343.128H120.902ZM118.166 349.928C117.964 349.928 117.793 349.864 117.654 349.736C117.526 349.608 117.462 349.437 117.462 349.224C117.462 349.021 117.526 348.856 117.654 348.728C117.793 348.6 117.964 348.536 118.166 348.536C118.369 348.536 118.534 348.6 118.662 348.728C118.801 348.856 118.87 349.021 118.87 349.224C118.87 349.437 118.801 349.608 118.662 349.736C118.534 349.864 118.369 349.928 118.166 349.928ZM139.425 335.64C139.585 335.64 139.708 335.688 139.793 335.784C139.889 335.88 139.937 336.003 139.937 336.152V346.568C139.937 346.717 139.894 346.84 139.809 346.936C139.724 347.032 139.606 347.08 139.457 347.08C139.308 347.08 139.196 347.037 139.121 346.952C139.046 346.856 139.009 346.728 139.009 346.568V337.688L135.217 345.016C135.089 345.261 134.913 345.384 134.689 345.384C134.465 345.384 134.289 345.261 134.161 345.016L130.337 337.752V346.568C130.337 346.728 130.3 346.856 130.225 346.952C130.15 347.037 130.038 347.08 129.889 347.08C129.729 347.08 129.606 347.037 129.521 346.952C129.446 346.856 129.409 346.728 129.409 346.568V336.152C129.409 336.003 129.452 335.88 129.537 335.784C129.633 335.688 129.761 335.64 129.921 335.64C130.113 335.64 130.273 335.763 130.401 336.008L134.705 344.264L138.945 336.008C139.073 335.763 139.233 335.64 139.425 335.64ZM152.351 346.472C152.383 346.536 152.399 346.6 152.399 346.664C152.399 346.781 152.351 346.883 152.255 346.968C152.159 347.043 152.047 347.08 151.919 347.08C151.833 347.08 151.748 347.053 151.663 347C151.588 346.947 151.529 346.872 151.487 346.776L150.271 343.992H144.063L142.831 346.776C142.735 346.979 142.585 347.08 142.383 347.08C142.255 347.08 142.143 347.043 142.047 346.968C141.961 346.883 141.919 346.776 141.919 346.648C141.919 346.573 141.929 346.515 141.951 346.472L146.623 335.976C146.719 335.741 146.895 335.624 147.151 335.624C147.268 335.624 147.375 335.656 147.471 335.72C147.577 335.784 147.652 335.869 147.695 335.976L152.351 346.472ZM149.887 343.128L147.167 336.936L144.431 343.128H149.887ZM145.023 333.256C144.82 333.096 144.719 332.925 144.719 332.744C144.719 332.616 144.767 332.509 144.863 332.424C144.959 332.328 145.076 332.28 145.215 332.28C145.385 332.28 145.545 332.36 145.695 332.52L147.343 334.36C147.407 334.424 147.439 334.493 147.439 334.568C147.439 334.643 147.407 334.707 147.343 334.76C147.289 334.813 147.225 334.84 147.151 334.84C147.076 334.84 147.012 334.819 146.959 334.776L145.023 333.256ZM158.588 347.128C157.148 347.128 156.055 346.749 155.308 345.992C154.572 345.235 154.204 344.12 154.204 342.648V336.152C154.204 335.992 154.247 335.869 154.332 335.784C154.428 335.688 154.551 335.64 154.7 335.64C154.849 335.64 154.967 335.688 155.052 335.784C155.148 335.869 155.196 335.992 155.196 336.152V342.76C155.196 345.085 156.327 346.248 158.588 346.248C159.708 346.248 160.551 345.955 161.116 345.368C161.692 344.781 161.98 343.912 161.98 342.76V336.152C161.98 336.003 162.023 335.88 162.108 335.784C162.204 335.688 162.327 335.64 162.476 335.64C162.625 335.64 162.743 335.688 162.828 335.784C162.913 335.869 162.956 335.992 162.956 336.152V342.648C162.956 344.12 162.583 345.235 161.836 345.992C161.1 346.749 160.017 347.128 158.588 347.128ZM63.144 395.128C62.0987 395.128 61.1867 394.899 60.408 394.44C59.64 393.971 59.048 393.304 58.632 392.44C58.2267 391.565 58.024 390.536 58.024 389.352C58.024 388.168 58.2267 387.144 58.632 386.28C59.048 385.416 59.64 384.755 60.408 384.296C61.1867 383.827 62.0987 383.592 63.144 383.592C63.8587 383.592 64.536 383.715 65.176 383.96C65.8267 384.195 66.376 384.536 66.824 384.984C66.9733 385.123 67.048 385.277 67.048 385.448C67.048 385.565 67.0107 385.667 66.936 385.752C66.872 385.837 66.7973 385.88 66.712 385.88C66.6053 385.88 66.4827 385.827 66.344 385.72C65.768 385.251 65.2453 384.925 64.776 384.744C64.3067 384.563 63.7573 384.472 63.128 384.472C61.8373 384.472 60.8347 384.899 60.12 385.752C59.416 386.605 59.064 387.805 59.064 389.352C59.064 390.909 59.416 392.115 60.12 392.968C60.8347 393.821 61.8373 394.248 63.128 394.248C63.7573 394.248 64.3067 394.157 64.776 393.976C65.2453 393.795 65.768 393.469 66.344 393C66.504 392.893 66.6267 392.84 66.712 392.84C66.7973 392.84 66.872 392.883 66.936 392.968C67.0107 393.053 67.048 393.155 67.048 393.272C67.048 393.443 66.9733 393.597 66.824 393.736C66.376 394.184 65.8267 394.531 65.176 394.776C64.536 395.011 63.8587 395.128 63.144 395.128ZM73.7199 395.128C72.6959 395.128 71.8052 394.899 71.0479 394.44C70.2905 393.971 69.7092 393.304 69.3039 392.44C68.8985 391.565 68.6959 390.541 68.6959 389.368C68.6959 388.184 68.8985 387.16 69.3039 386.296C69.7092 385.421 70.2852 384.755 71.0319 384.296C71.7892 383.827 72.6852 383.592 73.7199 383.592C74.7545 383.592 75.6505 383.827 76.4079 384.296C77.1652 384.755 77.7465 385.416 78.1519 386.28C78.5572 387.144 78.7599 388.168 78.7599 389.352C78.7599 390.536 78.5572 391.565 78.1519 392.44C77.7465 393.304 77.1652 393.971 76.4079 394.44C75.6505 394.899 74.7545 395.128 73.7199 395.128ZM73.7199 394.248C74.9892 394.248 75.9759 393.821 76.6799 392.968C77.3839 392.115 77.7359 390.909 77.7359 389.352C77.7359 387.795 77.3839 386.595 76.6799 385.752C75.9865 384.899 74.9999 384.472 73.7199 384.472C72.4505 384.472 71.4639 384.899 70.7599 385.752C70.0665 386.605 69.7199 387.805 69.7199 389.352C69.7199 390.899 70.0665 392.104 70.7599 392.968C71.4639 393.821 72.4505 394.248 73.7199 394.248ZM91.2533 383.64C91.4133 383.64 91.5359 383.688 91.6213 383.784C91.7173 383.88 91.7653 384.003 91.7653 384.152V394.568C91.7653 394.717 91.7226 394.84 91.6373 394.936C91.5519 395.032 91.4346 395.08 91.2853 395.08C91.1359 395.08 91.0239 395.037 90.9493 394.952C90.8746 394.856 90.8373 394.728 90.8373 394.568V385.688L87.0453 393.016C86.9173 393.261 86.7413 393.384 86.5173 393.384C86.2933 393.384 86.1173 393.261 85.9893 393.016L82.1653 385.752V394.568C82.1653 394.728 82.1279 394.856 82.0533 394.952C81.9786 395.037 81.8666 395.08 81.7173 395.08C81.5573 395.08 81.4346 395.037 81.3493 394.952C81.2746 394.856 81.2373 394.728 81.2373 394.568V384.152C81.2373 384.003 81.2799 383.88 81.3653 383.784C81.4613 383.688 81.5893 383.64 81.7493 383.64C81.9413 383.64 82.1013 383.763 82.2293 384.008L86.5333 392.264L90.7733 384.008C90.9013 383.763 91.0613 383.64 91.2533 383.64ZM100.851 389.224C101.501 389.384 102.003 389.704 102.355 390.184C102.717 390.653 102.899 391.24 102.899 391.944C102.899 392.936 102.573 393.693 101.923 394.216C101.283 394.739 100.371 395 99.1868 395H95.2028C95.0534 395 94.9254 394.952 94.8188 394.856C94.7228 394.76 94.6748 394.643 94.6748 394.504V384.216C94.6748 384.077 94.7228 383.96 94.8188 383.864C94.9254 383.768 95.0534 383.72 95.2028 383.72H99.0268C100.179 383.72 101.069 383.976 101.699 384.488C102.328 385 102.643 385.731 102.643 386.68C102.643 387.288 102.483 387.811 102.163 388.248C101.853 388.685 101.416 389.011 100.851 389.224ZM95.6508 388.84H98.8828C99.7894 388.84 100.477 388.653 100.947 388.28C101.416 387.907 101.651 387.368 101.651 386.664C101.651 385.267 100.728 384.568 98.8828 384.568H95.6508V388.84ZM99.1228 394.152C100.072 394.152 100.771 393.976 101.219 393.624C101.677 393.261 101.907 392.712 101.907 391.976C101.907 390.461 100.979 389.704 99.1228 389.704H95.6508V394.152H99.1228ZM109.986 395.128C108.962 395.128 108.071 394.899 107.314 394.44C106.556 393.971 105.975 393.304 105.57 392.44C105.164 391.565 104.962 390.541 104.962 389.368C104.962 388.184 105.164 387.16 105.57 386.296C105.975 385.421 106.551 384.755 107.298 384.296C108.055 383.827 108.951 383.592 109.986 383.592C111.02 383.592 111.916 383.827 112.674 384.296C113.431 384.755 114.012 385.416 114.418 386.28C114.823 387.144 115.026 388.168 115.026 389.352C115.026 390.536 114.823 391.565 114.418 392.44C114.012 393.304 113.431 393.971 112.674 394.44C111.916 394.899 111.02 395.128 109.986 395.128ZM109.986 394.248C111.255 394.248 112.242 393.821 112.946 392.968C113.65 392.115 114.002 390.909 114.002 389.352C114.002 387.795 113.65 386.595 112.946 385.752C112.252 384.899 111.266 384.472 109.986 384.472C108.716 384.472 107.73 384.899 107.026 385.752C106.332 386.605 105.986 387.805 105.986 389.352C105.986 390.899 106.332 392.104 107.026 392.968C107.73 393.821 108.716 394.248 109.986 394.248ZM122.03 395.08C121.881 395.08 121.758 395.037 121.662 394.952C121.577 394.856 121.534 394.728 121.534 394.568V384.216C121.534 384.077 121.582 383.96 121.678 383.864C121.785 383.768 121.913 383.72 122.062 383.72H125.806C126.979 383.72 127.886 384.003 128.526 384.568C129.177 385.133 129.502 385.933 129.502 386.968C129.502 388.013 129.177 388.824 128.526 389.4C127.875 389.965 126.969 390.248 125.806 390.248H122.526V394.568C122.526 394.728 122.478 394.856 122.382 394.952C122.297 395.037 122.179 395.08 122.03 395.08ZM125.742 389.4C127.587 389.4 128.51 388.589 128.51 386.968C128.51 385.368 127.587 384.568 125.742 384.568H122.526V389.4H125.742ZM140.393 383.64C140.553 383.64 140.676 383.688 140.761 383.784C140.847 383.869 140.889 383.992 140.889 384.152V394.568C140.889 394.728 140.847 394.856 140.761 394.952C140.676 395.037 140.553 395.08 140.393 395.08C140.244 395.08 140.127 395.032 140.041 394.936C139.956 394.84 139.913 394.717 139.913 394.568V389.704H132.713V394.568C132.713 394.717 132.671 394.84 132.585 394.936C132.5 395.032 132.383 395.08 132.233 395.08C132.084 395.08 131.961 395.032 131.865 394.936C131.78 394.84 131.737 394.717 131.737 394.568V384.152C131.737 384.003 131.78 383.88 131.865 383.784C131.961 383.688 132.084 383.64 132.233 383.64C132.383 383.64 132.5 383.688 132.585 383.784C132.671 383.88 132.713 384.003 132.713 384.152V388.84H139.913V384.152C139.913 384.003 139.956 383.88 140.041 383.784C140.127 383.688 140.244 383.64 140.393 383.64ZM144.296 395.08C144.146 395.08 144.024 395.032 143.928 394.936C143.842 394.84 143.8 394.717 143.8 394.568V384.152C143.8 384.003 143.842 383.88 143.928 383.784C144.024 383.688 144.146 383.64 144.296 383.64C144.445 383.64 144.562 383.688 144.648 383.784C144.744 383.88 144.792 384.003 144.792 384.152V394.568C144.792 394.717 144.744 394.84 144.648 394.936C144.562 395.032 144.445 395.08 144.296 395.08ZM156.09 383.64C156.239 383.64 156.351 383.688 156.426 383.784C156.511 383.869 156.554 383.992 156.554 384.152V394.568C156.554 394.717 156.511 394.84 156.426 394.936C156.341 395.032 156.223 395.08 156.074 395.08C155.914 395.08 155.77 395 155.642 394.84L148.634 385.384V394.568C148.634 394.717 148.591 394.84 148.506 394.936C148.421 395.032 148.309 395.08 148.17 395.08C148.01 395.08 147.893 395.037 147.818 394.952C147.743 394.856 147.706 394.728 147.706 394.568V384.152C147.706 384.003 147.749 383.88 147.834 383.784C147.93 383.688 148.058 383.64 148.218 383.64C148.389 383.64 148.527 383.72 148.634 383.88L155.626 393.32V384.152C155.626 384.003 155.669 383.88 155.754 383.784C155.839 383.688 155.951 383.64 156.09 383.64ZM163.999 395.08C163.85 395.08 163.727 395.037 163.631 394.952C163.546 394.856 163.503 394.728 163.503 394.568V384.216C163.503 384.077 163.551 383.96 163.647 383.864C163.754 383.768 163.882 383.72 164.031 383.72H167.775C168.948 383.72 169.855 384.003 170.495 384.568C171.146 385.133 171.471 385.933 171.471 386.968C171.471 388.013 171.146 388.824 170.495 389.4C169.844 389.965 168.938 390.248 167.775 390.248H164.495V394.568C164.495 394.728 164.447 394.856 164.351 394.952C164.266 395.037 164.148 395.08 163.999 395.08ZM167.711 389.4C169.556 389.4 170.479 388.589 170.479 386.968C170.479 385.368 169.556 384.568 167.711 384.568H164.495V389.4H167.711ZM182.362 383.64C182.522 383.64 182.645 383.688 182.73 383.784C182.815 383.869 182.858 383.992 182.858 384.152V394.568C182.858 394.728 182.815 394.856 182.73 394.952C182.645 395.037 182.522 395.08 182.362 395.08C182.213 395.08 182.095 395.032 182.01 394.936C181.925 394.84 181.882 394.717 181.882 394.568V389.704H174.682V394.568C174.682 394.717 174.639 394.84 174.554 394.936C174.469 395.032 174.351 395.08 174.202 395.08C174.053 395.08 173.93 395.032 173.834 394.936C173.749 394.84 173.706 394.717 173.706 394.568V384.152C173.706 384.003 173.749 383.88 173.834 383.784C173.93 383.688 174.053 383.64 174.202 383.64C174.351 383.64 174.469 383.688 174.554 383.784C174.639 383.88 174.682 384.003 174.682 384.152V388.84H181.882V384.152C181.882 384.003 181.925 383.88 182.01 383.784C182.095 383.688 182.213 383.64 182.362 383.64ZM186.297 395C186.147 395 186.019 394.952 185.913 394.856C185.817 394.76 185.769 394.643 185.769 394.504V384.216C185.769 384.077 185.817 383.96 185.913 383.864C186.019 383.768 186.147 383.72 186.297 383.72H192.377C192.515 383.72 192.622 383.757 192.697 383.832C192.782 383.907 192.825 384.013 192.825 384.152C192.825 384.28 192.782 384.381 192.697 384.456C192.622 384.531 192.515 384.568 192.377 384.568H186.745V388.84H192.057C192.195 388.84 192.302 388.877 192.377 388.952C192.462 389.027 192.505 389.133 192.505 389.272C192.505 389.411 192.462 389.517 192.377 389.592C192.302 389.667 192.195 389.704 192.057 389.704H186.745V394.152H192.377C192.515 394.152 192.622 394.189 192.697 394.264C192.782 394.328 192.825 394.429 192.825 394.568C192.825 394.707 192.782 394.813 192.697 394.888C192.622 394.963 192.515 395 192.377 395H186.297ZM188.057 382.696C187.961 382.803 187.854 382.856 187.737 382.856C187.63 382.856 187.534 382.819 187.449 382.744C187.374 382.659 187.337 382.557 187.337 382.44C187.337 382.323 187.385 382.211 187.481 382.104L188.953 380.52C189.102 380.36 189.273 380.28 189.465 380.28C189.646 380.28 189.817 380.36 189.977 380.52L191.449 382.104C191.545 382.2 191.593 382.312 191.593 382.44C191.593 382.547 191.55 382.643 191.465 382.728C191.39 382.803 191.299 382.84 191.193 382.84C191.065 382.84 190.958 382.792 190.873 382.696L189.465 381.064L188.057 382.696ZM66.744 437.224C66.872 437.224 66.9733 437.267 67.048 437.352C67.1333 437.427 67.176 437.528 67.176 437.656V441.896C67.176 442.173 67.0533 442.365 66.808 442.472C66.3707 442.675 65.8373 442.835 65.208 442.952C64.5893 443.069 63.96 443.128 63.32 443.128C62.2213 443.128 61.272 442.904 60.472 442.456C59.6827 441.997 59.0747 441.336 58.648 440.472C58.232 439.597 58.024 438.557 58.024 437.352C58.024 436.168 58.232 435.144 58.648 434.28C59.064 433.416 59.6613 432.755 60.44 432.296C61.2187 431.827 62.1413 431.592 63.208 431.592C63.9547 431.592 64.6533 431.715 65.304 431.96C65.9547 432.195 66.488 432.536 66.904 432.984C67.0427 433.123 67.112 433.277 67.112 433.448C67.112 433.565 67.08 433.667 67.016 433.752C66.952 433.837 66.872 433.88 66.776 433.88C66.6907 433.88 66.5733 433.827 66.424 433.72C65.8587 433.251 65.336 432.925 64.856 432.744C64.376 432.563 63.8267 432.472 63.208 432.472C61.8853 432.472 60.8613 432.899 60.136 433.752C59.4213 434.595 59.064 435.795 59.064 437.352C59.064 438.941 59.4267 440.157 60.152 441C60.8773 441.843 61.9333 442.264 63.32 442.264C63.8533 442.264 64.376 442.221 64.888 442.136C65.4107 442.04 65.8747 441.907 66.28 441.736V438.056H63.688C63.5387 438.056 63.4213 438.019 63.336 437.944C63.2613 437.869 63.224 437.768 63.224 437.64C63.224 437.512 63.2613 437.411 63.336 437.336C63.4213 437.261 63.5387 437.224 63.688 437.224H66.744ZM70.452 443.08C70.3027 443.08 70.18 443.032 70.084 442.936C69.9987 442.84 69.956 442.717 69.956 442.568V432.152C69.956 432.003 69.9987 431.88 70.084 431.784C70.18 431.688 70.3027 431.64 70.452 431.64C70.6013 431.64 70.7187 431.688 70.804 431.784C70.9 431.88 70.948 432.003 70.948 432.152V442.568C70.948 442.717 70.9 442.84 70.804 442.936C70.7187 443.032 70.6013 443.08 70.452 443.08ZM74.3583 443.08C74.2089 443.08 74.0863 443.032 73.9903 442.936C73.9049 442.84 73.8623 442.717 73.8623 442.568V432.216C73.8623 432.077 73.9103 431.96 74.0063 431.864C74.1129 431.768 74.2409 431.72 74.3903 431.72H80.3103C80.4489 431.72 80.5556 431.757 80.6302 431.832C80.7156 431.907 80.7583 432.013 80.7583 432.152C80.7583 432.291 80.7156 432.397 80.6302 432.472C80.5556 432.536 80.4489 432.568 80.3103 432.568H74.8543V436.84H79.9903C80.1289 436.84 80.2356 436.877 80.3103 436.952C80.3956 437.027 80.4383 437.133 80.4383 437.272C80.4383 437.411 80.3956 437.517 80.3103 437.592C80.2356 437.667 80.1289 437.704 79.9903 437.704H74.8543V442.568C74.8543 442.728 74.8116 442.856 74.7263 442.952C74.6409 443.037 74.5183 443.08 74.3583 443.08ZM85.9231 443.08C85.7738 443.08 85.6565 443.032 85.5711 442.936C85.4858 442.84 85.4431 442.717 85.4431 442.568V432.584H81.7471C81.6085 432.584 81.4965 432.547 81.4111 432.472C81.3365 432.397 81.2991 432.291 81.2991 432.152C81.2991 432.013 81.3365 431.907 81.4111 431.832C81.4965 431.757 81.6085 431.72 81.7471 431.72H90.0991C90.2271 431.72 90.3338 431.763 90.4191 431.848C90.5045 431.923 90.5471 432.024 90.5471 432.152C90.5471 432.28 90.5045 432.387 90.4191 432.472C90.3338 432.547 90.2271 432.584 90.0991 432.584H86.4191V442.568C86.4191 442.717 86.3711 442.84 86.2751 442.936C86.1898 443.032 86.0725 443.08 85.9231 443.08ZM95.1624 443.128C94.373 443.128 93.6104 443.005 92.8744 442.76C92.149 442.504 91.5784 442.163 91.1624 441.736C91.0237 441.619 90.9544 441.464 90.9544 441.272C90.9544 441.155 90.9864 441.053 91.0504 440.968C91.125 440.883 91.205 440.84 91.2904 440.84C91.397 440.84 91.5197 440.893 91.6584 441C92.661 441.832 93.829 442.248 95.1624 442.248C96.133 442.248 96.8797 442.056 97.4024 441.672C97.9357 441.277 98.2024 440.723 98.2024 440.008C98.2024 439.592 98.0744 439.256 97.8184 439C97.5624 438.744 97.237 438.547 96.8424 438.408C96.4477 438.259 95.9197 438.109 95.2584 437.96C94.3837 437.768 93.6744 437.571 93.1304 437.368C92.597 437.165 92.1437 436.861 91.7704 436.456C91.397 436.04 91.2104 435.485 91.2104 434.792C91.2104 434.163 91.3757 433.608 91.7064 433.128C92.0477 432.637 92.5224 432.259 93.1304 431.992C93.7384 431.725 94.437 431.592 95.2264 431.592C95.9624 431.592 96.6557 431.715 97.3064 431.96C97.957 432.195 98.4957 432.536 98.9224 432.984C99.061 433.123 99.1304 433.277 99.1304 433.448C99.1304 433.565 99.093 433.667 99.0184 433.752C98.9544 433.837 98.8797 433.88 98.7944 433.88C98.6877 433.88 98.565 433.827 98.4264 433.72C97.8504 433.251 97.3277 432.925 96.8584 432.744C96.3997 432.563 95.8557 432.472 95.2264 432.472C94.277 432.472 93.5357 432.675 93.0024 433.08C92.469 433.485 92.2024 434.051 92.2024 434.776C92.2024 435.213 92.3197 435.571 92.5544 435.848C92.789 436.115 93.093 436.328 93.4664 436.488C93.8504 436.648 94.341 436.803 94.9384 436.952L95.3544 437.048C96.2184 437.261 96.901 437.459 97.4024 437.64C97.9037 437.821 98.325 438.104 98.6664 438.488C99.0184 438.861 99.1944 439.368 99.1944 440.008C99.1944 440.616 99.0237 441.16 98.6824 441.64C98.3517 442.109 97.877 442.477 97.2584 442.744C96.6504 443 95.9517 443.128 95.1624 443.128ZM101.937 443C101.788 443 101.66 442.952 101.553 442.856C101.457 442.76 101.409 442.643 101.409 442.504V432.216C101.409 432.077 101.457 431.96 101.553 431.864C101.66 431.768 101.788 431.72 101.937 431.72H108.017C108.156 431.72 108.262 431.757 108.337 431.832C108.422 431.907 108.465 432.013 108.465 432.152C108.465 432.28 108.422 432.381 108.337 432.456C108.262 432.531 108.156 432.568 108.017 432.568H102.385V436.84H107.697C107.836 436.84 107.942 436.877 108.017 436.952C108.102 437.027 108.145 437.133 108.145 437.272C108.145 437.411 108.102 437.517 108.017 437.592C107.942 437.667 107.836 437.704 107.697 437.704H102.385V442.152H108.017C108.156 442.152 108.262 442.189 108.337 442.264C108.422 442.328 108.465 442.429 108.465 442.568C108.465 442.707 108.422 442.813 108.337 442.888C108.262 442.963 108.156 443 108.017 443H101.937ZM113.658 443.08C113.508 443.08 113.391 443.032 113.306 442.936C113.22 442.84 113.178 442.717 113.178 442.568V432.584H109.482C109.343 432.584 109.231 432.547 109.146 432.472C109.071 432.397 109.034 432.291 109.034 432.152C109.034 432.013 109.071 431.907 109.146 431.832C109.231 431.757 109.343 431.72 109.482 431.72H117.834C117.962 431.72 118.068 431.763 118.154 431.848C118.239 431.923 118.282 432.024 118.282 432.152C118.282 432.28 118.239 432.387 118.154 432.472C118.068 432.547 117.962 432.584 117.834 432.584H114.154V442.568C114.154 442.717 114.106 442.84 114.01 442.936C113.924 443.032 113.807 443.08 113.658 443.08ZM58.968 491C58.8293 491 58.7067 490.957 58.6 490.872C58.504 490.787 58.456 490.68 58.456 490.552V480.152C58.456 480.003 58.4987 479.88 58.584 479.784C58.68 479.688 58.8027 479.64 58.952 479.64C59.112 479.64 59.2347 479.688 59.32 479.784C59.4053 479.869 59.448 479.992 59.448 480.152V490.136H64.92C65.0587 490.136 65.1653 490.173 65.24 490.248C65.3253 490.323 65.368 490.429 65.368 490.568C65.368 490.707 65.3253 490.813 65.24 490.888C65.1653 490.963 65.0587 491 64.92 491H58.968ZM67.4833 491.08C67.3339 491.08 67.2113 491.032 67.1153 490.936C67.0299 490.84 66.9873 490.717 66.9873 490.568V480.152C66.9873 480.003 67.0299 479.88 67.1153 479.784C67.2113 479.688 67.3339 479.64 67.4833 479.64C67.6326 479.64 67.7499 479.688 67.8353 479.784C67.9313 479.88 67.9793 480.003 67.9793 480.152V490.568C67.9793 490.717 67.9313 490.84 67.8353 490.936C67.7499 491.032 67.6326 491.08 67.4833 491.08ZM71.4215 491C71.2722 491 71.1442 490.952 71.0375 490.856C70.9415 490.76 70.8935 490.643 70.8935 490.504V480.216C70.8935 480.077 70.9415 479.96 71.0375 479.864C71.1442 479.768 71.2722 479.72 71.4215 479.72H77.5015C77.6402 479.72 77.7468 479.757 77.8215 479.832C77.9068 479.907 77.9495 480.013 77.9495 480.152C77.9495 480.28 77.9068 480.381 77.8215 480.456C77.7468 480.531 77.6402 480.568 77.5015 480.568H71.8695V484.84H77.1815C77.3202 484.84 77.4268 484.877 77.5015 484.952C77.5868 485.027 77.6295 485.133 77.6295 485.272C77.6295 485.411 77.5868 485.517 77.5015 485.592C77.4268 485.667 77.3202 485.704 77.1815 485.704H71.8695V490.152H77.5015C77.6402 490.152 77.7468 490.189 77.8215 490.264C77.9068 490.328 77.9495 490.429 77.9495 490.568C77.9495 490.707 77.9068 490.813 77.8215 490.888C77.7468 490.963 77.6402 491 77.5015 491H71.4215ZM73.1815 478.696C73.0855 478.803 72.9788 478.856 72.8615 478.856C72.7548 478.856 72.6588 478.819 72.5735 478.744C72.4988 478.659 72.4615 478.557 72.4615 478.44C72.4615 478.323 72.5095 478.211 72.6055 478.104L74.0775 476.52C74.2268 476.36 74.3975 476.28 74.5895 476.28C74.7708 476.28 74.9415 476.36 75.1015 476.52L76.5735 478.104C76.6695 478.2 76.7175 478.312 76.7175 478.44C76.7175 478.547 76.6748 478.643 76.5895 478.728C76.5148 478.803 76.4242 478.84 76.3175 478.84C76.1895 478.84 76.0828 478.792 75.9975 478.696L74.5895 477.064L73.1815 478.696ZM88.5431 479.64C88.6925 479.64 88.8045 479.688 88.8791 479.784C88.9645 479.869 89.0071 479.992 89.0071 480.152V490.568C89.0071 490.717 88.9645 490.84 88.8791 490.936C88.7938 491.032 88.6765 491.08 88.5271 491.08C88.3671 491.08 88.2231 491 88.0951 490.84L81.0871 481.384V490.568C81.0871 490.717 81.0445 490.84 80.9591 490.936C80.8738 491.032 80.7618 491.08 80.6231 491.08C80.4631 491.08 80.3458 491.037 80.2711 490.952C80.1965 490.856 80.1591 490.728 80.1591 490.568V480.152C80.1591 480.003 80.2018 479.88 80.2871 479.784C80.3831 479.688 80.5111 479.64 80.6711 479.64C80.8418 479.64 80.9805 479.72 81.0871 479.88L88.0791 489.32V480.152C88.0791 480.003 88.1218 479.88 88.2071 479.784C88.2925 479.688 88.4045 479.64 88.5431 479.64ZM104.612 479.64C104.772 479.64 104.895 479.688 104.98 479.784C105.065 479.869 105.108 479.992 105.108 480.152V490.568C105.108 490.728 105.065 490.856 104.98 490.952C104.895 491.037 104.772 491.08 104.612 491.08C104.463 491.08 104.345 491.032 104.26 490.936C104.175 490.84 104.132 490.717 104.132 490.568V485.704H96.932V490.568C96.932 490.717 96.8893 490.84 96.804 490.936C96.7187 491.032 96.6013 491.08 96.452 491.08C96.3027 491.08 96.18 491.032 96.084 490.936C95.9987 490.84 95.956 490.717 95.956 490.568V480.152C95.956 480.003 95.9987 479.88 96.084 479.784C96.18 479.688 96.3027 479.64 96.452 479.64C96.6013 479.64 96.7187 479.688 96.804 479.784C96.8893 479.88 96.932 480.003 96.932 480.152V484.84H104.132V480.152C104.132 480.003 104.175 479.88 104.26 479.784C104.345 479.688 104.463 479.64 104.612 479.64ZM108.547 491C108.397 491 108.269 490.952 108.163 490.856C108.067 490.76 108.019 490.643 108.019 490.504V480.216C108.019 480.077 108.067 479.96 108.163 479.864C108.269 479.768 108.397 479.72 108.547 479.72H114.627C114.765 479.72 114.872 479.757 114.947 479.832C115.032 479.907 115.075 480.013 115.075 480.152C115.075 480.28 115.032 480.381 114.947 480.456C114.872 480.531 114.765 480.568 114.627 480.568H108.995V484.84H114.307C114.445 484.84 114.552 484.877 114.627 484.952C114.712 485.027 114.755 485.133 114.755 485.272C114.755 485.411 114.712 485.517 114.627 485.592C114.552 485.667 114.445 485.704 114.307 485.704H108.995V490.152H114.627C114.765 490.152 114.872 490.189 114.947 490.264C115.032 490.328 115.075 490.429 115.075 490.568C115.075 490.707 115.032 490.813 114.947 490.888C114.872 490.963 114.765 491 114.627 491H108.547ZM111.715 493.928C111.512 493.928 111.341 493.864 111.203 493.736C111.075 493.608 111.011 493.437 111.011 493.224C111.011 493.021 111.075 492.856 111.203 492.728C111.341 492.6 111.512 492.536 111.715 492.536C111.917 492.536 112.083 492.6 112.211 492.728C112.349 492.856 112.419 493.021 112.419 493.224C112.419 493.437 112.349 493.608 112.211 493.736C112.083 493.864 111.917 493.928 111.715 493.928ZM110.307 478.696C110.211 478.803 110.104 478.856 109.987 478.856C109.88 478.856 109.784 478.819 109.699 478.744C109.624 478.659 109.587 478.557 109.587 478.44C109.587 478.323 109.635 478.211 109.731 478.104L111.203 476.52C111.352 476.36 111.523 476.28 111.715 476.28C111.896 476.28 112.067 476.36 112.227 476.52L113.699 478.104C113.795 478.2 113.843 478.312 113.843 478.44C113.843 478.547 113.8 478.643 113.715 478.728C113.64 478.803 113.549 478.84 113.443 478.84C113.315 478.84 113.208 478.792 113.123 478.696L111.715 477.064L110.307 478.696Z" fill="#EDF0F5"/>
<path d="M60.912 246.08C60.592 246.08 60.336 245.989 60.144 245.808C59.9627 245.616 59.872 245.365 59.872 245.056V236.416H56.96C56.32 236.416 56 236.133 56 235.568C56 235.003 56.32 234.72 56.96 234.72H64.848C65.488 234.72 65.808 235.003 65.808 235.568C65.808 236.133 65.488 236.416 64.848 236.416H61.936V245.056C61.936 245.365 61.84 245.616 61.648 245.808C61.4667 245.989 61.2213 246.08 60.912 246.08ZM76.0525 244.704C76.1805 244.896 76.2445 245.083 76.2445 245.264C76.2445 245.509 76.1432 245.712 75.9405 245.872C75.7485 246.032 75.5192 246.112 75.2525 246.112C75.0818 246.112 74.9165 246.075 74.7565 246C74.6072 245.915 74.4792 245.792 74.3725 245.632L72.2445 242.4C72.0312 242.059 71.8018 241.819 71.5565 241.68C71.3218 241.541 71.0125 241.472 70.6285 241.472H69.0605V245.056C69.0605 245.376 68.9698 245.632 68.7885 245.824C68.6072 246.005 68.3618 246.096 68.0525 246.096C67.7432 246.096 67.4925 246.005 67.3005 245.824C67.1192 245.632 67.0285 245.376 67.0285 245.056V235.696C67.0285 235.387 67.1138 235.147 67.2845 234.976C67.4658 234.805 67.7112 234.72 68.0205 234.72H72.0205C73.3005 234.72 74.2712 235.008 74.9325 235.584C75.6045 236.149 75.9405 236.971 75.9405 238.048C75.9405 238.923 75.6898 239.643 75.1885 240.208C74.6978 240.763 73.9992 241.12 73.0925 241.28C73.4018 241.355 73.6738 241.488 73.9085 241.68C74.1432 241.872 74.3725 242.139 74.5965 242.48L76.0525 244.704ZM71.7325 239.888C72.5112 239.888 73.0818 239.744 73.4445 239.456C73.8072 239.157 73.9885 238.704 73.9885 238.096C73.9885 237.477 73.8072 237.029 73.4445 236.752C73.0818 236.464 72.5112 236.32 71.7325 236.32H69.0445V239.888H71.7325ZM88.2525 244.768C88.3165 244.907 88.3485 245.045 88.3485 245.184C88.3485 245.429 88.2472 245.637 88.0445 245.808C87.8525 245.979 87.6285 246.064 87.3725 246.064C87.2018 246.064 87.0418 246.021 86.8925 245.936C86.7432 245.84 86.6258 245.696 86.5405 245.504L85.5805 243.36H79.9485L78.9885 245.504C78.9032 245.696 78.7858 245.84 78.6365 245.936C78.4872 246.021 78.3218 246.064 78.1405 246.064C77.8952 246.064 77.6712 245.979 77.4685 245.808C77.2658 245.637 77.1645 245.429 77.1645 245.184C77.1645 245.045 77.1965 244.907 77.2605 244.768L81.6765 235.28C81.7725 235.067 81.9165 234.907 82.1085 234.8C82.3112 234.683 82.5245 234.624 82.7485 234.624C82.9725 234.624 83.1805 234.683 83.3725 234.8C83.5752 234.907 83.7245 235.067 83.8205 235.28L88.2525 244.768ZM84.8765 241.76L82.7645 237.008L80.6525 241.76H84.8765ZM98.4475 234.64C98.7462 234.64 98.9808 234.736 99.1515 234.928C99.3328 235.109 99.4235 235.355 99.4235 235.664V245.056C99.4235 245.365 99.3328 245.616 99.1515 245.808C98.9702 246 98.7355 246.096 98.4475 246.096C98.1062 246.096 97.8448 245.973 97.6635 245.728L91.8235 238.128V245.056C91.8235 245.365 91.7382 245.616 91.5675 245.808C91.3968 246 91.1622 246.096 90.8635 246.096C90.5648 246.096 90.3302 246 90.1595 245.808C89.9888 245.616 89.9035 245.365 89.9035 245.056V235.664C89.9035 235.355 89.9942 235.109 90.1755 234.928C90.3568 234.736 90.5968 234.64 90.8955 234.64C91.2262 234.64 91.4822 234.763 91.6635 235.008L97.4875 242.576V235.664C97.4875 235.355 97.5728 235.109 97.7435 234.928C97.9248 234.736 98.1595 234.64 98.4475 234.64ZM110.449 239.904C110.694 239.904 110.891 239.979 111.041 240.128C111.19 240.267 111.265 240.453 111.265 240.688V244.128C111.265 244.619 111.201 244.965 111.073 245.168C110.945 245.371 110.683 245.536 110.289 245.664C109.862 245.813 109.366 245.931 108.801 246.016C108.235 246.101 107.691 246.144 107.169 246.144C106.006 246.144 104.998 245.915 104.145 245.456C103.291 244.997 102.635 244.336 102.177 243.472C101.729 242.597 101.505 241.557 101.505 240.352C101.505 239.168 101.729 238.144 102.177 237.28C102.635 236.405 103.281 235.739 104.113 235.28C104.945 234.811 105.926 234.576 107.057 234.576C108.561 234.576 109.793 234.981 110.753 235.792C110.881 235.909 110.971 236.027 111.025 236.144C111.089 236.261 111.121 236.4 111.121 236.56C111.121 236.795 111.057 236.992 110.929 237.152C110.801 237.312 110.646 237.392 110.465 237.392C110.347 237.392 110.241 237.376 110.145 237.344C110.049 237.301 109.937 237.237 109.809 237.152C109.339 236.821 108.902 236.592 108.497 236.464C108.091 236.325 107.633 236.256 107.121 236.256C105.958 236.256 105.078 236.603 104.481 237.296C103.894 237.979 103.601 238.997 103.601 240.352C103.601 243.125 104.817 244.512 107.249 244.512C107.974 244.512 108.699 244.411 109.425 244.208V241.376H107.617C107.361 241.376 107.158 241.312 107.009 241.184C106.87 241.056 106.801 240.875 106.801 240.64C106.801 240.405 106.87 240.224 107.009 240.096C107.158 239.968 107.361 239.904 107.617 239.904H110.449ZM122.975 246.144C121.887 246.144 120.932 245.909 120.111 245.44C119.3 244.971 118.676 244.299 118.239 243.424C117.801 242.549 117.583 241.525 117.583 240.352C117.583 239.179 117.801 238.16 118.239 237.296C118.676 236.421 119.3 235.749 120.111 235.28C120.932 234.811 121.887 234.576 122.975 234.576C123.679 234.576 124.34 234.683 124.959 234.896C125.577 235.099 126.127 235.397 126.607 235.792C126.745 235.899 126.841 236.011 126.895 236.128C126.948 236.245 126.975 236.389 126.975 236.56C126.975 236.795 126.911 236.992 126.783 237.152C126.655 237.312 126.5 237.392 126.319 237.392C126.105 237.392 125.887 237.317 125.663 237.168C125.204 236.827 124.777 236.592 124.383 236.464C123.988 236.325 123.551 236.256 123.071 236.256C121.961 236.256 121.119 236.603 120.543 237.296C119.977 237.989 119.695 239.008 119.695 240.352C119.695 241.707 119.977 242.731 120.543 243.424C121.119 244.117 121.961 244.464 123.071 244.464C123.529 244.464 123.951 244.395 124.335 244.256C124.729 244.117 125.172 243.883 125.663 243.552C125.769 243.488 125.876 243.435 125.983 243.392C126.089 243.349 126.201 243.328 126.319 243.328C126.5 243.328 126.655 243.408 126.783 243.568C126.911 243.728 126.975 243.925 126.975 244.16C126.975 244.32 126.948 244.464 126.895 244.592C126.841 244.709 126.745 244.821 126.607 244.928C126.127 245.323 125.577 245.627 124.959 245.84C124.34 246.043 123.679 246.144 122.975 246.144ZM137.595 234.64C137.904 234.64 138.149 234.736 138.331 234.928C138.512 235.109 138.603 235.355 138.603 235.664V245.056C138.603 245.365 138.507 245.616 138.315 245.808C138.133 246 137.893 246.096 137.595 246.096C137.285 246.096 137.04 246 136.859 245.808C136.677 245.616 136.587 245.365 136.587 245.056V241.104H130.811V245.056C130.811 245.365 130.715 245.616 130.523 245.808C130.341 246 130.096 246.096 129.787 246.096C129.488 246.096 129.243 246 129.051 245.808C128.869 245.616 128.779 245.365 128.779 245.056V235.664C128.779 235.355 128.869 235.109 129.051 234.928C129.232 234.736 129.477 234.64 129.787 234.64C130.096 234.64 130.341 234.736 130.523 234.928C130.715 235.109 130.811 235.355 130.811 235.664V239.44H136.587V235.664C136.587 235.355 136.677 235.109 136.859 234.928C137.04 234.736 137.285 234.64 137.595 234.64ZM145.685 246.144C144.138 246.144 142.965 245.744 142.164 244.944C141.365 244.144 140.965 242.976 140.965 241.44V235.664C140.965 235.355 141.055 235.109 141.237 234.928C141.418 234.736 141.663 234.64 141.973 234.64C142.282 234.64 142.527 234.736 142.709 234.928C142.89 235.109 142.981 235.355 142.981 235.664V241.552C142.981 242.523 143.21 243.259 143.669 243.76C144.127 244.251 144.799 244.496 145.685 244.496C146.559 244.496 147.226 244.245 147.685 243.744C148.143 243.243 148.373 242.512 148.373 241.552V235.664C148.373 235.355 148.463 235.109 148.645 234.928C148.826 234.736 149.071 234.64 149.381 234.64C149.69 234.64 149.935 234.736 150.117 234.928C150.298 235.109 150.389 235.355 150.389 235.664V241.44C150.389 242.965 149.989 244.133 149.189 244.944C148.389 245.744 147.221 246.144 145.685 246.144ZM146.245 233.52C146.223 233.616 146.165 233.696 146.069 233.76C145.973 233.813 145.861 233.84 145.733 233.84C145.583 233.84 145.45 233.803 145.333 233.728C145.226 233.643 145.173 233.531 145.173 233.392C145.173 233.2 145.231 233.051 145.349 232.944C145.477 232.837 145.647 232.741 145.861 232.656C146.095 232.56 146.213 232.469 146.213 232.384C146.213 232.203 146.021 232.112 145.637 232.112C145.423 232.112 145.157 232.149 144.837 232.224C144.687 232.256 144.565 232.229 144.469 232.144C144.373 232.048 144.325 231.936 144.325 231.808C144.325 231.723 144.346 231.648 144.389 231.584C144.442 231.509 144.517 231.456 144.613 231.424C144.943 231.296 145.333 231.232 145.781 231.232C146.314 231.232 146.735 231.328 147.045 231.52C147.354 231.712 147.509 231.952 147.509 232.24C147.509 232.464 147.445 232.635 147.317 232.752C147.199 232.859 147.023 232.965 146.789 233.072C146.618 233.157 146.49 233.232 146.405 233.296C146.319 233.349 146.266 233.424 146.245 233.52Z" fill="#EDF0F5"/>
</g>
<defs>
<clipPath id="clip0_0_207">
<rect width="328" height="768" fill="white"/>
</clipPath>
</defs>
</svg>
